<?xml version="1.0" encoding="utf-8"?>
<!-- Generator: Adobe Illustrator 24.0.1, SVG Export Plug-In . SVG Version: 6.00 Build 0)  -->
<svg version="1.1" xmlns="http://www.w3.org/2000/svg" xmlns:xlink="http://www.w3.org/1999/xlink" x="0px" y="0px"
	 viewBox="0 0 500 414.96" style="enable-background:new 0 0 500 414.96;" xml:space="preserve">
<style type="text/css">
	.st0{fill:#DFF1F2;}
	.st1{clip-path:url(#SVGID_2_);fill:none;stroke:#79BF4C;stroke-miterlimit:10;}
	.st2{clip-path:url(#SVGID_4_);fill:none;stroke:#4FD3B9;stroke-miterlimit:10;}
	.st3{clip-path:url(#SVGID_6_);fill:none;stroke:#008F57;stroke-miterlimit:10;}
	.st4{clip-path:url(#SVGID_8_);fill:none;stroke:#29BAA3;stroke-miterlimit:10;}
	.st5{clip-path:url(#SVGID_10_);fill:none;stroke:#4FD3B9;stroke-miterlimit:10;}
	.st6{clip-path:url(#SVGID_12_);fill:none;stroke:#4FD3B9;stroke-miterlimit:10;}
	.st7{clip-path:url(#SVGID_14_);fill:none;stroke:#008F57;stroke-miterlimit:10;}
	.st8{fill:#C3DDDD;}
	.st9{fill:none;stroke:#29BAA3;stroke-miterlimit:10;}
	.st10{fill:none;stroke:#29BAA3;stroke-miterlimit:10;stroke-dasharray:5.0086,5.0086;}
	.st11{fill:#FAB594;}
	.st12{fill:#EEAF35;}
	.st13{fill:#FFFFFF;}
	.st14{fill:#1F143F;}
	.st15{fill:#386E8A;}
	.st16{fill:#0091A2;}
	.st17{fill:#FFDB49;}
	.st18{fill:#D99D81;}
	.st19{opacity:0.2;fill:#231F20;}
	.st20{fill:#DFDBDA;}
	.st21{fill:#00A1DD;}
	.st22{fill:#3CB35E;}
	.st23{fill:#009364;}
	.st24{opacity:0.1;fill:#231F20;}
	.st25{fill:#2E3A36;}
	.st26{fill:#D5BFB8;}
	.st27{fill:#938585;}
	.st28{fill:none;stroke:#B8A392;stroke-width:3;stroke-miterlimit:10;}
	.st29{fill:#29BAA3;}
	.st30{opacity:0.2;fill:#EAEFF2;}
</style>
<g id="BACKGROUND">
	<path class="st0" d="M126.27,398.07c-15.46,2.27-31.13,3.18-46.75,2.69c-9.14-0.29-18.42-1.08-26.93-4.44
		c-15.72-6.21-27.44-21.53-29.32-38.32c-0.62-5.53-0.25-11.12,0.36-16.64c0.63-5.78,1.55-11.6,3.87-16.93
		c5.97-13.72,19.61-21.68,28.3-33.39c9.89-13.33,11.44-27.74,10.08-44.22c-1.49-18.08-5.61-36.43-1.62-54.12
		c1.77-7.86,5.29-15.57,11.34-20.89c15.76-13.86,41.81-7.01,59.32-18.58c20.63-13.63,22.35-47.95,45.43-56.82
		c11.11-4.27,23.65-0.84,34.56,3.92c10.91,4.76,21.54,10.92,33.36,12.27c13.66,1.56,27.1-3.49,40.69-5.55
		c14.64-2.21,30.06-0.83,43.4,5.6c13.34,6.42,24.38,18.19,28.36,32.45c1.96,7.03,2.22,14.48,4.58,21.39
		c3.45,10.07,11.01,17.82,19.31,24.15c8.34,6.37,17.79,9.47,26.21,15.36c16.71,11.69,27.84,31.1,29.48,51.43
		c0.68,8.4-0.13,16.89,0.91,25.25c1.38,11.08,5.97,21.58,12,30.97c3.97,6.18,8.56,11.93,12.71,17.99
		c6.65,9.7,12.28,20.55,13.28,32.27c1,11.72-3.45,24.45-13.33,30.83c-9.34,6.03-21.37,5.44-32.37,3.85
		c-14.14-2.05-28.06-5.41-42.24-7.19c-13.97-1.76-28.08-1.27-42.09-0.69c-31.1,1.3-62.22,2.15-93.35,2.15
		c-22.34,0.07-44.67-0.52-67-0.61c-9.5-0.04-18.98,0.35-28.47,0.63c-8.79,0.27-16.32,2.09-24.95,3.67
		C132.37,397.11,129.32,397.62,126.27,398.07z"/>
</g>
<g id="OBJECTS">
	<g>
		<g>
			<defs>
				<path id="SVGID_1_" d="M211.55,311.72c-2.12,14.9-2.89,30.1-6.16,44.8c-0.72,3.22-1.22,6.76-3.4,9.3
					c2.33-13.55,2.66-27.49-0.03-40.97c-1.23-6.16-3.66-12.22-7.86-16.89c-2.71-3.01-6.11-5.41-8.37-8.77
					c-2.26-3.36-3.05-8.27-0.31-11.25c-0.43,0.47-4.03-1.54-4.52-1.82c-1.49-0.88-2.84-1.98-4.01-3.25
					c-2.55-2.78-4.14-6.16-4.36-9.95c-0.07-1.27,0.43-2.98,1.7-2.9c-1.88-1.57-3.78-3.15-5.3-5.08c-1.72-2.18-2.83-4.77-2.71-7.58
					c0.11-2.79,1.03-3.42,3.55-4.39c-0.46-1.44-1.01-2.81-1.21-4.34c-0.19-1.47-0.15-3.04,0.56-4.35c0.75-1.37,2.24-2.32,3.8-2.41
					c1.56-0.09,3.15,0.67,4.06,1.94c0.3-1.65,2.09-2.71,3.76-2.67c1.67,0.05,3.21,0.96,4.5,2.03c3.51,2.91,4.55,6.89,6.23,10.99
					c2.1-0.98,4.71-0.25,6.42,1.32c1.71,1.57,2.63,3.81,3.16,6.07c0.84,3.61,0.77,7.35,0.69,11.05c1.47-1.15,3.72-0.86,5.19,0.29
					c1.47,1.15,2.26,2.98,2.65,4.8c1.08,5.05-0.55,10.27-2.51,15.05c1.39-0.78,3.24-0.3,4.38,0.81c4.12,4,1.06,11.81,0.35,16.59
					C211.7,310.68,211.62,311.2,211.55,311.72z"/>
			</defs>
			<use xlink:href="#SVGID_1_"  style="overflow:visible;fill:#008F57;"/>
			<clipPath id="SVGID_2_">
				<use xlink:href="#SVGID_1_"  style="overflow:visible;"/>
			</clipPath>
			<path class="st1" d="M201.98,365.82c7.94-40.85,3.9-65.83-10.11-91.12c-14.01-25.29-29.87-47.29-29.87-47.29"/>
		</g>
		<g>
			<defs>
				<path id="SVGID_3_" d="M170.32,286.04c3.1,1.55,6.08,3.34,8.92,5.33c26.95,18.97,37.42,55.14,35.19,86.84
					c-6.36-14.75-15.53-29.31-27.57-40.06c-7.3-6.52-13.54-13.7-20.48-20.57c-12.28-12.16-18.23-30.39-15.5-47.46
					C153.04,278.53,162.56,282.17,170.32,286.04z"/>
			</defs>
			<use xlink:href="#SVGID_3_"  style="overflow:visible;fill:#29BAA3;"/>
			<clipPath id="SVGID_4_">
				<use xlink:href="#SVGID_3_"  style="overflow:visible;"/>
			</clipPath>
			<path class="st2" d="M214.39,379.71c-5.03-22.46-16.55-42.74-29.93-61.23c-12.4-17.14-31.35-33.55-35.97-54.99"/>
		</g>
		<g>
			<defs>
				<path id="SVGID_5_" d="M275.21,317.68c6.25,11.44,11.49,23.52,18.6,34.45c1.56,2.39,3.04,5.11,5.58,6.51
					c-6.01-10.28-10.51-21.48-12.42-33.23c-0.87-5.37-0.74-11.02,1.24-16.08c1.28-3.26,3.31-6.24,4.12-9.65
					c0.81-3.41-0.04-7.63-3.17-9.21c0.49,0.25,2.8-2.47,3.11-2.85c0.94-1.16,1.7-2.47,2.27-3.86c1.23-3.03,1.49-6.26,0.52-9.39
					c-0.33-1.05-1.25-2.29-2.26-1.83c1.05-1.84,2.11-3.7,2.75-5.73c0.73-2.29,0.84-4.72-0.1-6.97c-0.94-2.23-1.88-2.46-4.21-2.48
					c-0.06-1.31-0.03-2.59-0.33-3.89c-0.29-1.25-0.8-2.51-1.78-3.35c-1.03-0.89-2.52-1.2-3.81-0.8c-1.3,0.4-2.35,1.5-2.7,2.81
					c-0.74-1.25-2.52-1.57-3.86-1.02c-1.34,0.55-2.31,1.75-3.03,3.01c-1.96,3.43-1.6,6.97-1.71,10.8c-2-0.16-3.89,1.23-4.8,3.02
					c-0.91,1.79-0.98,3.89-0.72,5.88c0.42,3.18,1.61,6.19,2.8,9.17c-1.54-0.48-3.28,0.43-4.12,1.81c-0.84,1.38-0.93,3.1-0.69,4.7
					c0.66,4.42,3.56,8.16,6.61,11.44c-1.36-0.21-2.72,0.74-3.31,1.99c-2.13,4.49,2.73,9.9,4.76,13.56
					C274.78,316.89,274.99,317.28,275.21,317.68z"/>
			</defs>
			<use xlink:href="#SVGID_5_"  style="overflow:visible;fill:#79BF4C;"/>
			<clipPath id="SVGID_6_">
				<use xlink:href="#SVGID_5_"  style="overflow:visible;"/>
			</clipPath>
			<path class="st3" d="M299.39,358.64c-18.84-30.71-23.15-52.18-19.48-76.94c3.67-24.76,9.85-47.41,9.85-47.41"/>
		</g>
		<g>
			<defs>
				<path id="SVGID_7_" d="M247.1,259.54c3.23,1.99,6.31,4.23,9.21,6.68c27.55,23.31,35.46,63.78,29.95,98.16
					c-5.5-16.71-14.1-33.48-26.19-46.38c-7.33-7.82-13.44-16.26-20.34-24.42c-12.22-14.46-16.94-34.93-12.3-53.27
					C228.98,249.68,239.02,254.57,247.1,259.54z"/>
			</defs>
			<use xlink:href="#SVGID_7_"  style="overflow:visible;fill:#4FD3B9;"/>
			<clipPath id="SVGID_8_">
				<use xlink:href="#SVGID_7_"  style="overflow:visible;"/>
			</clipPath>
			<path class="st4" d="M286.08,366.01c-3.3-24.99-13.9-48.23-26.7-69.7c-11.86-19.9-30.94-39.64-33.9-63.48"/>
		</g>
		<g>
			<defs>
				<path id="SVGID_9_" d="M300.01,281.26c-2.41,3.05-4.59,6.29-6.52,9.67c-18.33,32.11-11.72,73.85,5.66,104.99
					c-0.58-18.02,1.81-37.18,8.91-53.84c4.31-10.1,7.22-20.37,11-30.65c6.68-18.21,4.03-39.56-6.88-55.59
					C313.98,265.39,306.04,273.63,300.01,281.26z"/>
			</defs>
			<use xlink:href="#SVGID_9_"  style="overflow:visible;fill:#29BAA3;"/>
			<clipPath id="SVGID_10_">
				<use xlink:href="#SVGID_9_"  style="overflow:visible;"/>
			</clipPath>
			<path class="st5" d="M299.9,397.41c-5.6-25.21-3.56-51.3,1.21-76.47c4.42-23.32,15.85-49.02,10.32-73.01"/>
		</g>
		<g>
			<defs>
				<path id="SVGID_11_" d="M239.9,287.35c-1.91,2.46-3.62,5.07-5.14,7.78c-14.41,25.82-8.81,59.14,5.33,83.92
					c-0.6-14.4,1.16-29.75,6.71-43.12c3.37-8.11,5.62-16.34,8.56-24.6c5.2-14.61,2.92-31.67-5.93-44.4
					C250.95,274.56,244.66,281.21,239.9,287.35z"/>
			</defs>
			<use xlink:href="#SVGID_11_"  style="overflow:visible;fill:#29BAA3;"/>
			<clipPath id="SVGID_12_">
				<use xlink:href="#SVGID_11_"  style="overflow:visible;"/>
			</clipPath>
			<path class="st6" d="M240.7,380.25c-4.67-20.12-3.24-41,0.38-61.16c3.36-18.68,12.3-39.32,7.69-58.46"/>
		</g>
		<g>
			<defs>
				<path id="SVGID_13_" d="M205.24,330.75c3.05,13.22,4.91,26.81,8.97,39.77c0.89,2.84,1.61,5.98,3.77,8.09
					c-3.13-12-4.5-24.49-3.11-36.81c0.63-5.63,2.35-11.26,5.77-15.78c2.2-2.91,5.07-5.33,6.85-8.52c1.77-3.19,2.1-7.66-0.59-10.13
					c0.42,0.39,3.51-1.69,3.92-1.98c1.27-0.9,2.4-2,3.35-3.23c2.08-2.7,3.25-5.85,3.16-9.27c-0.03-1.15-0.61-2.65-1.75-2.47
					c1.57-1.55,3.16-3.12,4.37-4.97c1.38-2.09,2.17-4.5,1.85-7.01c-0.32-2.5-1.19-2.99-3.53-3.67c0.31-1.33,0.69-2.6,0.76-3.99
					c0.06-1.34-0.1-2.74-0.84-3.86c-0.78-1.18-2.19-1.91-3.6-1.87c-1.41,0.04-2.78,0.84-3.5,2.06c-0.39-1.46-2.09-2.28-3.59-2.11
					c-1.5,0.17-2.81,1.11-3.88,2.17c-2.93,2.89-3.56,6.54-4.75,10.35c-1.96-0.72-4.25,0.14-5.66,1.67
					c-1.41,1.54-2.07,3.63-2.37,5.69c-0.48,3.3-0.12,6.66,0.23,9.98c-1.41-0.92-3.41-0.49-4.64,0.66c-1.23,1.15-1.8,2.85-2.01,4.52
					c-0.58,4.62,1.28,9.18,3.41,13.33c-1.31-0.6-2.93-0.02-3.87,1.06c-3.4,3.91-0.05,10.69,0.96,14.93
					C205.03,329.82,205.14,330.29,205.24,330.75z"/>
			</defs>
			<use xlink:href="#SVGID_13_"  style="overflow:visible;fill:#79BF4C;"/>
			<clipPath id="SVGID_14_">
				<use xlink:href="#SVGID_13_"  style="overflow:visible;"/>
			</clipPath>
			<path class="st7" d="M217.98,378.61c-10.26-36.08-8.55-58.83,2.1-82.62c10.64-23.79,23.2-44.77,23.2-44.77"/>
		</g>
	</g>
	<rect y="383.65" class="st8" width="500" height="116.35"/>
	<g>
		<g>
			<path class="st9" d="M310.71,173.93c-0.83,0.1-1.66,0.19-2.48,0.28"/>
			<path class="st10" d="M303.24,174.68c-14.1,1.14-28.33,0.71-42.34-1.28c-11.69-1.66-23.8-4.7-32.48-12.71
				c-3.31-3.05-5.57-8.4-5.04-12.95c0.51-4.41,4.04-8.51,8.45-8.94c11.82-1.15,19.42,12.81,21.53,22.52
				c2.42,11.13,1.18,26.26-9.81,32.56c-5.83,3.34-14.47,2.13-17.69-3.76c-0.7-1.28-1.13-2.77-0.88-4.21
				c0.52-3.01,4.08-4.86,7.05-4.15c2.97,0.71,5.17,3.42,6,6.36c0.83,2.94,0.49,6.09-0.16,9.08c-0.7,3.23-1.78,6.43-3.59,9.19
				c-4.65,7.06-13.7,10.31-22.13,9.76c-7.89-0.51-11.81-6.3-16.93-11.54c-7.33-7.5-16.39-10.27-26.71-9.69
				c-8.09,0.45-15.62,4.08-23.41,6.3c-7.8,2.22-16.9,2.81-23.33-2.13c-2.27-1.74-4.16-4.51-3.57-7.31c0.59-2.79,3.53-4.59,6.37-4.73
				c2.84-0.14,5.58,1.04,8.09,2.38c2.29,1.22,4.56,2.65,6.14,4.72c2.81,3.68,2.96,8.76,2.14,13.31
				c-2.44,13.49-12.24,24.7-23.71,32.22c-2.43,1.59-5.05,3.15-6.53,5.66c-2.59,4.39-0.75,10.16,2.33,14.23
				c3.08,4.07,7.27,7.23,10.13,11.45c7.73,11.42,2.28,23.4-5.55,32.71c-2.85,3.4-6.82,5.9-11.11,6.93"/>
			<path class="st9" d="M104,311.08c-0.83,0.08-1.66,0.11-2.5,0.08"/>
		</g>
	</g>
	<g>
		<path class="st11" d="M83.92,293.82c0.08,0.09,0.16,0.17,0.24,0.26c1.55-2.27,3.1-4.53,4.65-6.8c1.78-2.59,3.64-5.27,6.37-6.84
			c0.53-0.3,1.18-0.56,1.72-0.28c1.94,0.99-0.19,5.22-0.79,6.39c-2.31,4.5-4.52,9.39-7.37,13.57c-2.75,4.04-7.3,0.66-9.73-1.77
			c-3.43-3.43-8.91-7.09-9.92-12.17c-0.27-1.34,0.48-3.07,1.84-3.06c0.55,0,1.05,0.29,1.51,0.58
			C76.66,286.38,80.52,290.15,83.92,293.82z"/>
		<path class="st12" d="M70.57,278.39c2.26,0.68,4.47,2.9,5.56,4.42c0.42,0.6,4.54,4.8,4.57,4.77c-2.16,2.51-4.57,4.8-7.19,6.82
			c-0.15,0.11-0.31,0.23-0.5,0.23c-0.16,0-0.3-0.09-0.43-0.18c-1.9-1.32-3.18-3.39-4.63-5.12c-2.17-2.59-4.19-8.69-0.31-10.75
			C68.56,278.09,69.57,278.09,70.57,278.39z"/>
		<polygon class="st13" points="89.47,266.26 102.93,257.78 114.56,277.61 103.14,286.7 		"/>
		<path class="st11" d="M97.4,283.94c-0.23,0.18-0.43,0.39-0.63,0.61c-0.58,0.65-1.93,2.53-2.99,1.54
			c-0.28-0.26-0.37-0.76-0.66-1.06c-0.36-0.38-0.83-0.68-1.3-0.89c-0.08-0.04-0.17-0.08-0.2-0.16c-0.03-0.09,0.03-0.19,0.09-0.26
			c0.59-0.79,1.25-1.53,1.78-2.37c0.42-0.67,0.35-1.27,0.36-2.01c0.01-2.31,0.88-4.57,1.5-6.78c0.14-0.51,0.47-1.8,1.23-1.6
			c0.19,0.05,0.35,0.19,0.45,0.35c0.11,0.17,0.16,0.36,0.2,0.55c0.28,1.39-0.7,2.57-0.82,3.9c-0.07,0.88,0.51,1.66,1,2.35
			c0.79,1.1,1.5,2.26,2.47,3.22c0.07,0.09,0.15,0.18,0.16,0.29c0.01,0.14-0.08,0.27-0.16,0.38c-0.31,0.41-0.61,0.94-1.03,1.25
			C98.43,283.55,97.84,283.6,97.4,283.94z"/>
		<path class="st14" d="M78.32,382.4c0.26,0.02,0.53,0.04,0.77,0.15c0.24,0.11,0.44,0.34,0.43,0.61c0,0.15-0.07,0.29-0.16,0.41
			c-0.47,0.62-1.38,0.66-2.16,0.64c-2.89-0.07-5.78-0.15-8.66-0.22c-0.13,0-0.26-0.01-0.38-0.06c-0.13-0.06-0.23-0.17-0.31-0.29
			c-0.6-0.85-0.51-2-0.26-3c0.25-1.01,0.64-2.01,0.57-3.04c-0.02-0.37-0.08-0.8,0.19-1.04c0.13-0.11,0.29-0.15,0.46-0.19
			c0.92-0.2,1.86-0.28,2.8-0.26c-0.1,0-0.06,2.96,0.03,3.25C72.47,381.9,76.06,382.22,78.32,382.4z"/>
		<path class="st14" d="M65.94,382.4c0.26,0.02,0.53,0.04,0.77,0.15c0.24,0.11,0.44,0.34,0.43,0.61c0,0.15-0.07,0.29-0.16,0.41
			c-0.47,0.62-1.38,0.66-2.16,0.64c-2.89-0.07-5.78-0.15-8.66-0.22c-0.13,0-0.26-0.01-0.38-0.06c-0.13-0.06-0.23-0.17-0.31-0.29
			c-0.6-0.85-0.51-2-0.26-3c0.25-1.01,0.64-2.01,0.57-3.04c-0.02-0.37-0.08-0.8,0.19-1.04c0.13-0.11,0.29-0.15,0.46-0.19
			c0.92-0.2,1.86-0.28,2.8-0.26c-0.1,0-0.06,2.96,0.03,3.25C60.09,381.9,63.68,382.22,65.94,382.4z"/>
		<path class="st15" d="M63.9,312.45c-1.75,0.14-3.48,0.57-5.1,1.26c-4.27,1.82-1.18,11.13-0.26,14.45
			c1.16,4.22,2.33,8.44,3.49,12.66c1.9,6.89,2.87,13.97,3.38,21.1c0.1,1.34,0.94,15.96,1.06,15.96c1.94,0.03,3.89,0.05,5.83,0.08
			c0.52,0.01,1.16-7.77,1.22-8.53c0.22-2.89,0.26-5.78,0.4-8.68c0.85-13.23,0-26.82-0.54-40.08c-0.09-2.2-0.43-4.48-1.82-6.26
			c-0.57-0.73-2.13-0.9-2.96-1.22c-1.25-0.48-2.27-0.82-3.65-0.79C64.6,312.4,64.25,312.42,63.9,312.45z"/>
		<path class="st16" d="M51.56,312.86c-0.25,1.27-0.33,2.57-0.42,3.86c-0.8,11.93,0.41,23.88,1.23,35.77
			c0.58,8.46,1.24,16.92,1.72,25.39c1.94,0.03,3.89,0.05,5.83,0.08c0.52,0.01,1.16-7.77,1.22-8.53c0.22-2.89,0.26-5.78,0.41-8.68
			c0-4.61,0.48-9.27,0.71-13.87c0.27-5.46,0.59-10.96,1.25-16.38c0.39-3.24,0.87-6.48,1.24-9.73c0.34-2.98,1.15-6.5-0.19-9.32
			c-0.71-1.5-2.03-2.7-3.58-3.28c-1.43-0.53-2.99-0.55-4.52-0.52c-0.82,0.02-1.65,0.05-2.42,0.33
			C52.14,308.7,51.9,311.12,51.56,312.86z"/>
		<path class="st17" d="M71.8,281.97c0.93,3.06,0.76,6.69,0.84,9.63c0.2,7.86,0.4,15.73,0.6,23.59c0.01,0.47,0.02,0.96-0.23,1.36
			c-0.3,0.48-0.87,0.69-1.42,0.85c-4.39,1.28-9.06,1.16-13.64,1.02c-2.03-0.06-4.11-0.13-6-0.89c-0.35-0.14-0.71-0.32-0.92-0.64
			c-0.23-0.35-0.22-0.8-0.21-1.22c0.2-6.49,0.72-12.98,1.58-19.42c0.67-5.07,0.41-10.58,2.71-15.28c2.21-4.54,7.47-5.93,12.01-4.23
			c1.35,0.5,2.6,1.35,3.42,2.54C71.1,280.1,71.51,281,71.8,281.97z"/>
		<path class="st18" d="M65.35,278.57c-0.95,0.66-2.46,0.56-3.5,0.36c-1.86-0.36-1.89-2.48-1.66-3.98c0.19-1.19,0.8-4.58,2.26-4.78
			c1.56-0.21,3.28,0.66,3.81,2.15c0.25,0.69,0.23,1.45,0.21,2.18c-0.03,1.14,0.03,3-0.88,3.87
			C65.52,278.44,65.43,278.51,65.35,278.57z"/>
		<path class="st11" d="M60.38,266.09c0.34,1.3,0.02,2.5-0.7,2.69c-0.73,0.19-1.59-0.71-1.93-2c-0.34-1.3-0.02-2.5,0.7-2.69
			C59.18,263.9,60.04,264.8,60.38,266.09z"/>
		<path class="st11" d="M42.46,295.91c-0.63,1.26-1.23,2.53-1.77,3.83c-0.26,0.62-0.43,0.92-0.24,1.59c0.2,0.7,0.48,1.38,0.78,2.04
			c1.15,2.58,2.81,4.9,4.54,7.11c1.35,1.73,2.59,3.55,3.86,5.35c1.18,1.68,2.79,3.26,3.29,5.29c1.34,0.19,2.67-0.39,3.78-1.16
			c0.02-0.01,0.04-0.03,0.05-0.05c0.06-0.1-0.07-0.2-0.18-0.24c-0.92-0.4-1.23-1.19-1.61-2.04c-0.49-1.11-1-2.2-1.53-3.29
			c-1.04-2.12-2.16-4.21-3.29-6.29c-0.98-1.81-1.95-3.62-2.91-5.44c-0.42-0.79-0.8-1.22-0.48-2.14c0.24-0.7,0.73-1.3,1.15-1.9
			c1.38-1.99,2.75-3.99,4.13-5.98c0.56-0.81,1.13-1.37,1.4-2.36c0.25-0.92,0.23-1.9-0.31-2.72
			C50.09,282.96,45.3,290.29,42.46,295.91z"/>
		<path class="st17" d="M61.27,282.51c-0.15,2.36-1.82,5.01-3.06,6.41c-0.49,0.55-3.66,5.51-3.62,5.52
			c-2.93-1.54-5.7-3.38-8.26-5.48c-0.14-0.12-0.3-0.25-0.34-0.43c-0.03-0.16,0.02-0.32,0.08-0.46c0.86-2.15,2.59-3.86,3.95-5.66
			c2.04-2.69,7.53-6.04,10.4-2.72C61.11,280.49,61.34,281.47,61.27,282.51z"/>
		<path class="st14" d="M56.02,256.03c-0.03,0.28-0.08,0.55-0.15,0.81c-0.35,1.2-1.29,2.05-2,3.04c-0.61,0.84-0.78,1.93-0.68,2.95
			c0.22,2.18,1.43,4.28,2.79,5.95c0.29,0.36,0.62,0.81,1.01,1.07c0.45,0.3,1.06,0.48,1.56,0.68c1.42,0.55,2.91,0.95,4.42,1.18
			c0.74,0.11,1.49,0.18,2.24,0.23c0.69,0.04,1.37-0.32,2-0.59c0.72-0.31,1.42-0.7,2.03-1.2c0.65-0.54,1.18-1.2,1.7-1.86
			c0.4-0.51,0.81-1.05,0.98-1.68c0.2-0.75,0.05-1.59,0.37-2.3c0.2-0.45,0.57-0.8,0.86-1.2c0.96-1.33-0.22-3.06,0.57-4.46
			c0.49-0.87,1.43-1.37,1.86-2.28c0.41-0.86,0.45-1.9,0.13-2.79c-0.53-1.48-1.84-2.56-3.24-3.26c-1.61-0.8-3.68-1.14-5.12-0.06
			c-0.3,0.23-0.57,0.51-0.86,0.76c-2.33,1.98-5.13,0.17-7.74,1.01c-1.08,0.35-2.07,1.13-2.44,2.21
			C56.11,254.81,56.09,255.43,56.02,256.03z"/>
		<path class="st11" d="M57.82,266.59c0.26,2.79,1.65,5.51,3.96,7.16c1.77,1.26,4.44,1.99,6.46,0.9c2.71-1.47,3.43-5.34,3.5-8.14
			c0.08-3.31-1.03-7.07-4.17-8.7c-2.2-1.15-5.73-1.42-7.44,0.65C58.35,260.61,57.55,263.69,57.82,266.59z"/>
		<path class="st14" d="M68.44,257.7c-0.69,0.05-1.37,0.26-1.96,0.62c-1.18,0.72-1.95,1.96-3.03,2.83
			c-1.02,0.82-2.26,1.29-3.47,1.79c-0.23,0.09-0.46,0.2-0.62,0.38c-0.21,0.24-0.26,0.57-0.25,0.89c0.02,1.78,1.13,3.41,0.13,5.13
			c-0.1,0.18-0.23,0.35-0.4,0.47c-1.05,0.71-1.87-1.24-2.19-1.95c-0.48-1.06-0.76-2.22-0.81-3.39c-0.11-2.34,0.49-5.38,2.43-6.85
			c1.88-1.43,4.21-2.32,6.58-2.21c0.8,0.04,1.63,0.19,2.38,0.45c0.45,0.16,0.76,0.35,1.1,0.67c0.2,0.19,0.41,0.32,0.56,0.57
			c0.03,0.05,0.26,0.63,0.24,0.63C68.9,257.69,68.67,257.68,68.44,257.7z"/>
		<path class="st13" d="M64.22,270.17c1.01-0.03,1.99,0.03,3.01-0.15c1.02-0.18,2.02-0.49,2.96-0.92c0,0-0.15,1.07-0.19,1.18
			c-0.15,0.42-0.37,0.83-0.65,1.18c-0.92,1.13-2.9,1.37-4.09,0.53c-0.32-0.22-0.58-0.52-0.76-0.86
			C64.45,271.08,64.1,270.18,64.22,270.17z"/>
		<g>
			<g>
				<path class="st14" d="M68.14,262.72c0.78-0.32,1.75-0.41,2.34,0.3c0.41,0.5,1.11-0.21,0.71-0.71c-0.8-0.97-2.22-1-3.31-0.56
					C67.29,262,67.55,262.96,68.14,262.72L68.14,262.72z"/>
			</g>
		</g>
		<path class="st11" d="M59.08,268.67c0.57,1.12,0.48,2.31-0.21,2.67c-0.69,0.35-1.72-0.27-2.29-1.39
			c-0.57-1.12-0.48-2.31,0.21-2.67C57.48,266.93,58.51,267.55,59.08,268.67z"/>
		<path class="st14" d="M63.92,265.85c0.12,0.72-0.09,1.35-0.47,1.41c-0.38,0.06-0.78-0.47-0.9-1.18c-0.12-0.72,0.09-1.35,0.47-1.41
			C63.4,264.6,63.8,265.13,63.92,265.85z"/>
		<path class="st14" d="M70,264.94c0.02,0.73-0.27,1.32-0.66,1.34c-0.38,0.01-0.71-0.57-0.74-1.29c-0.02-0.73,0.27-1.32,0.66-1.34
			C69.65,263.64,69.97,264.22,70,264.94z"/>
		<g>
			<g>
				<path class="st14" d="M63.78,262.48c-1.37-0.21-2.67,0.56-3.24,1.8c-0.27,0.58,0.6,1.09,0.86,0.5c0.36-0.79,1.17-1.49,2.11-1.34
					C64.14,263.54,64.41,262.57,63.78,262.48L63.78,262.48z"/>
			</g>
		</g>
	</g>
	<g>
		<path class="st16" d="M311.85,352.24c0,0,131.56,0,141.22,0c9.33-10.23,10.34-23.32,0-31.03c-9.93,0-141.22,0-141.22,0v3.71
			l4.47,0v23.16h-4.47V352.24z"/>
		<path class="st13" d="M316.33,348.09c0,0,125.03,0,134.1,0c6.46-5.13,6.65-18.46,0-23.16c-9.33,0-134.1,0-134.1,0V348.09z"/>
		<path class="st19" d="M447.03,329.25c-8.41,0-110.65,0-130.7,0v-4.32c0,0,124.78,0,134.1,0c6.65,4.7,6.46,18.03,0,23.16
			c-0.03,0-0.06,0-0.1,0C453.25,341.91,452.24,332.93,447.03,329.25z"/>
		<g>
			<path class="st20" d="M445.14,333.82c-8.44,0.39-16.89,0.65-25.33,0.78c-8.44,0.16-16.89,0.2-25.33,0.22
				c-8.44-0.02-16.89-0.06-25.33-0.22c-8.44-0.13-16.89-0.39-25.33-0.78c8.44-0.39,16.89-0.65,25.33-0.78
				c8.44-0.16,16.89-0.2,25.33-0.22c8.44,0.02,16.89,0.06,25.33,0.22C428.25,333.18,436.69,333.44,445.14,333.82z"/>
		</g>
		<g>
			<path class="st20" d="M430.39,340.83c-8.44,0.39-16.89,0.65-25.33,0.78c-8.44,0.16-16.89,0.2-25.33,0.22
				c-8.44-0.02-16.89-0.06-25.33-0.22c-8.44-0.13-16.89-0.39-25.33-0.78c8.44-0.39,16.89-0.65,25.33-0.78
				c8.44-0.16,16.89-0.2,25.33-0.22c8.44,0.02,16.89,0.06,25.33,0.22C413.5,340.18,421.95,340.44,430.39,340.83z"/>
		</g>
		<path class="st21" d="M451.38,290.3c0,0-131.56,0-141.22,0c-9.33-10.23-10.34-23.32,0-31.03c9.93,0,141.22,0,141.22,0v3.71
			l-4.47,0v23.16h4.47V290.3z"/>
		<path class="st13" d="M446.91,286.14c0,0-125.03,0-134.1,0c-6.46-5.13-6.65-18.46,0-23.16c9.33,0,134.1,0,134.1,0V286.14z"/>
		<path class="st19" d="M316.2,267.3c8.41,0,110.65,0,130.7,0v-4.32c0,0-124.78,0-134.1,0c-6.65,4.7-6.46,18.03,0,23.16
			c0.03,0,0.06,0,0.1,0C309.99,279.96,311,270.98,316.2,267.3z"/>
		<g>
			<path class="st20" d="M318.1,271.87c8.44-0.39,16.89-0.65,25.33-0.78c8.44-0.16,16.89-0.2,25.33-0.22
				c8.44,0.02,16.89,0.06,25.33,0.22c8.44,0.13,16.89,0.39,25.33,0.78c-8.44,0.39-16.89,0.65-25.33,0.78
				c-8.44,0.16-16.89,0.2-25.33,0.22c-8.44-0.02-16.89-0.06-25.33-0.22C334.98,272.52,326.54,272.26,318.1,271.87z"/>
		</g>
		<g>
			<path class="st20" d="M332.84,278.88c8.44-0.39,16.89-0.65,25.33-0.78c8.44-0.16,16.89-0.2,25.33-0.22
				c8.44,0.02,16.89,0.06,25.33,0.22c8.44,0.13,16.89,0.39,25.33,0.78c-8.44,0.39-16.89,0.65-25.33,0.78
				c-8.44,0.16-16.89,0.2-25.33,0.22c-8.44-0.02-16.89-0.06-25.33-0.22C349.73,279.53,341.29,279.27,332.84,278.88z"/>
		</g>
		<path class="st12" d="M317.4,383.27c0,0,131.56,0,141.22,0c9.33-10.23,10.34-23.32,0-31.03c-9.93,0-141.22,0-141.22,0v3.71l4.47,0
			v23.16h-4.47V383.27z"/>
		<path class="st17" d="M300.51,383.27c0,0,131.56,0,141.22,0c9.33-10.23,10.34-23.32,0-31.03c-9.93,0-141.22,0-141.22,0v3.71
			l4.47,0v23.16h-4.47V383.27z"/>
		<path class="st13" d="M304.98,379.12c0,0,125.03,0,134.1,0c6.46-5.13,6.65-18.46,0-23.16c-9.33,0-134.1,0-134.1,0V379.12z"/>
		<path class="st19" d="M435.68,360.27c-8.41,0-110.65,0-130.7,0v-4.32c0,0,124.78,0,134.1,0c6.65,4.7,6.46,18.03,0,23.16
			c-0.03,0-0.06,0-0.1,0C441.9,372.93,440.89,363.95,435.68,360.27z"/>
		<g>
			<path class="st20" d="M433.79,364.85c-8.44,0.39-16.89,0.65-25.33,0.78c-8.44,0.16-16.89,0.2-25.33,0.22
				c-8.44-0.02-16.89-0.06-25.33-0.22c-8.44-0.13-16.89-0.39-25.33-0.78c8.44-0.39,16.89-0.65,25.33-0.78
				c8.44-0.16,16.89-0.2,25.33-0.22c8.44,0.02,16.89,0.06,25.33,0.22C416.9,364.2,425.35,364.46,433.79,364.85z"/>
		</g>
		<g>
			<path class="st20" d="M419.05,371.85c-8.44,0.39-16.89,0.65-25.33,0.78c-8.44,0.16-16.89,0.2-25.33,0.22
				c-8.44-0.02-16.89-0.06-25.33-0.22c-8.44-0.13-16.89-0.39-25.33-0.78c8.44-0.39,16.89-0.65,25.33-0.78
				c8.44-0.16,16.89-0.2,25.33-0.22c8.44,0.02,16.89,0.06,25.33,0.22C402.16,371.21,410.6,371.47,419.05,371.85z"/>
		</g>
		<g>
			<path class="st22" d="M317.27,259.57c0,0,131.56,0,141.22,0c9.33-10.23,10.34-23.32,0-31.03c-9.93,0-141.22,0-141.22,0v3.71
				l4.47,0v23.16h-4.47V259.57z"/>
			<path class="st23" d="M300.38,259.57c0,0,131.56,0,141.22,0c9.33-10.23,10.34-23.32,0-31.03c-9.93,0-141.22,0-141.22,0v3.71
				l4.47,0v23.16h-4.47V259.57z"/>
			<path class="st13" d="M304.86,255.42c0,0,125.03,0,134.1,0c6.46-5.13,6.65-18.46,0-23.16c-9.33,0-134.1,0-134.1,0V255.42z"/>
			<path class="st19" d="M435.56,236.58c-8.41,0-110.65,0-130.7,0v-4.32c0,0,124.78,0,134.1,0c6.65,4.7,6.46,18.03,0,23.16
				c-0.03,0-0.06,0-0.1,0C441.78,249.24,440.77,240.26,435.56,236.58z"/>
			<g>
				<path class="st20" d="M433.67,241.15c-8.44,0.39-16.89,0.65-25.33,0.78c-8.44,0.16-16.89,0.2-25.33,0.22
					c-8.44-0.02-16.89-0.06-25.33-0.22c-8.44-0.13-16.89-0.39-25.33-0.78c8.44-0.39,16.89-0.65,25.33-0.78
					c8.44-0.16,16.89-0.2,25.33-0.22c8.44,0.02,16.89,0.06,25.33,0.22C416.78,240.51,425.22,240.77,433.67,241.15z"/>
			</g>
			<g>
				<path class="st20" d="M418.92,248.16c-8.44,0.39-16.89,0.65-25.33,0.78c-8.44,0.16-16.89,0.2-25.33,0.22
					c-8.44-0.02-16.89-0.06-25.33-0.22c-8.44-0.13-16.89-0.39-25.33-0.78c8.44-0.39,16.89-0.65,25.33-0.78
					c8.44-0.16,16.89-0.2,25.33-0.22c8.44,0.02,16.89,0.06,25.33,0.22C402.03,247.51,410.47,247.77,418.92,248.16z"/>
			</g>
		</g>
		<path class="st17" d="M304.97,321.4h150.77c1.1,0,2-0.9,2-2v-27.42c0-1.1-0.9-2-2-2H304.97c-1.1,0-2,0.9-2,2v27.42
			C302.97,320.5,303.86,321.4,304.97,321.4z"/>
		<path class="st24" d="M455.22,297.14c0-0.84-0.68-1.51-1.51-1.51H302.97v-4.13c0-0.84,0.68-1.51,1.51-1.51h151.75
			c0.84,0,1.51,0.68,1.51,1.51v28.39c0,0.84-0.68,1.51-1.51,1.51h-1.01V297.14z"/>
		
			<rect x="419.05" y="289.98" transform="matrix(-1 -1.224647e-16 1.224647e-16 -1 856.6207 611.202)" class="st12" width="18.53" height="31.23"/>
		
			<rect x="400.77" y="294.25" transform="matrix(-1 -1.224647e-16 1.224647e-16 -1 813.5329 611.2022)" class="st12" width="11.99" height="22.71"/>
		<path class="st16" d="M304.97,228.55h150.77c1.1,0,2-0.9,2-2v-27.42c0-1.1-0.9-2-2-2H304.97c-1.1,0-2,0.9-2,2v27.42
			C302.97,227.65,303.86,228.55,304.97,228.55z"/>
		<path class="st24" d="M455.22,204.28c0-0.84-0.68-1.51-1.51-1.51H302.97v-4.13c0-0.84,0.68-1.51,1.51-1.51h151.75
			c0.84,0,1.51,0.68,1.51,1.51v28.39c0,0.84-0.68,1.51-1.51,1.51h-1.01V204.28z"/>
		
			<rect x="419.05" y="197.13" transform="matrix(-1 -1.224647e-16 1.224647e-16 -1 856.6207 425.4983)" class="st15" width="18.53" height="31.23"/>
		
			<rect x="400.77" y="201.39" transform="matrix(-1 -1.224647e-16 1.224647e-16 -1 813.5329 425.4982)" class="st15" width="11.99" height="22.71"/>
	</g>
	<g>
		<g>
			<path class="st13" d="M344.09,362.35c-21.85,6.43-85.58-18.43-111.42,0.79c-9.98,2.91-12.81-1.87-12.93-10.29
				c29.47-44.75,72.23-2.32,112.29-5.21C336.26,352.82,338.72,356.82,344.09,362.35z"/>
			<path class="st13" d="M330.21,335.28c-69.07,9.56-99.17,9.56-110.34,35.98c0-5.97,0-10.14-0.09-18.36
				c3.88-36.33,66.25-38.48,86.52-57.83C311.54,303.11,326.09,329.46,330.21,335.28z"/>
			<rect x="232.88" y="368.78" class="st25" width="111.22" height="13.38"/>
			<path class="st26" d="M356.28,385.8c-22.02,6.35-97.6-20.07-122.48-6.14c-10.75,3.07-19.28,5.65-13.93-10.87
				c31.75-47.3,82.75,0,125.91-3.05C348.59,372.2,351.93,379.65,356.28,385.8z"/>
			<g>
				<path class="st27" d="M229.33,367.48c3.22-3.54,7.43-6.13,11.89-7.92c4.48-1.79,9.25-2.82,14.05-3.27
					c9.65-0.96,19.33,0.66,28.58,3.04c9.28,2.43,18.25,5.69,27.36,8.36c9.1,2.64,18.42,4.76,27.98,4.86
					c-4.76,0.36-9.56,0.07-14.32-0.52c-4.75-0.64-9.45-1.64-14.08-2.84c-9.27-2.39-18.27-5.57-27.45-7.93
					c-4.58-1.21-9.2-2.2-13.88-2.84c-4.67-0.66-9.38-0.89-14.08-0.59c-2.35,0.15-4.69,0.42-7,0.87c-2.31,0.43-4.61,0.99-6.83,1.77
					C237.07,361.93,232.86,364.26,229.33,367.48z"/>
			</g>
			<g>
				<path class="st27" d="M232.33,373.64c1.88-1.38,3.98-2.48,6.14-3.37c2.17-0.89,4.4-1.65,6.68-2.22
					c4.56-1.15,9.23-1.8,13.93-2.07c9.4-0.58,18.81,0.45,28.03,2.02c9.23,1.61,18.3,3.78,27.41,5.58c9.12,1.77,18.32,3.19,27.66,3.4
					c-9.33,0.57-18.72-0.34-27.93-1.87c-9.23-1.49-18.33-3.59-27.48-5.15c-9.14-1.59-18.37-2.69-27.62-2.43
					c-4.62,0.13-9.24,0.57-13.78,1.47C240.84,369.88,236.36,371.27,232.33,373.64z"/>
			</g>
		</g>
		<g>
			<path class="st13" d="M95.67,362.35c21.85,6.43,85.58-18.43,111.42,0.79c9.98,2.91,12.81-1.87,12.93-10.29
				c-29.47-44.75-72.23-2.32-112.29-5.21C103.5,352.82,101.05,356.82,95.67,362.35z"/>
			<path class="st13" d="M109.56,335.28c69.07,9.56,99.17,9.56,110.34,35.98c0-5.97,0-10.14,0.09-18.36
				c-3.88-36.33-66.25-38.48-86.52-57.83C128.23,303.11,113.68,329.46,109.56,335.28z"/>
			
				<rect x="95.67" y="368.78" transform="matrix(-1 -1.224647e-16 1.224647e-16 -1 302.5566 750.9448)" class="st25" width="111.22" height="13.38"/>
			<path class="st26" d="M83.48,385.8c22.02,6.35,97.6-20.07,122.48-6.14c10.75,3.07,19.28,5.65,13.93-10.87
				c-31.75-47.3-82.75,0-125.91-3.05C91.18,372.2,87.83,379.65,83.48,385.8z"/>
			<g>
				<path class="st27" d="M210.44,367.48c-3.53-3.21-7.74-5.55-12.22-7.01c-2.22-0.78-4.52-1.34-6.83-1.77
					c-2.31-0.44-4.65-0.71-7-0.87c-4.7-0.3-9.41-0.07-14.08,0.59c-4.67,0.64-9.3,1.63-13.88,2.84c-9.17,2.36-18.17,5.54-27.45,7.93
					c-4.63,1.21-9.33,2.2-14.07,2.84c-4.75,0.59-9.55,0.87-14.32,0.52c9.56-0.1,18.88-2.22,27.98-4.86
					c9.11-2.67,18.08-5.93,27.36-8.36c9.25-2.38,18.93-4,28.58-3.04c4.8,0.46,9.57,1.48,14.05,3.27
					C203.01,361.35,207.22,363.93,210.44,367.48z"/>
			</g>
			<g>
				<path class="st27" d="M207.43,373.64c-4.03-2.37-8.51-3.76-13.04-4.64c-4.54-0.9-9.16-1.33-13.78-1.47
					c-9.24-0.26-18.48,0.84-27.62,2.43c-9.15,1.56-18.24,3.65-27.48,5.15c-9.21,1.53-18.61,2.44-27.93,1.87
					c9.34-0.21,18.54-1.63,27.66-3.4c9.12-1.8,18.19-3.97,27.41-5.58c9.22-1.57,18.62-2.6,28.03-2.02
					c4.69,0.27,9.37,0.93,13.93,2.07c2.28,0.57,4.51,1.33,6.68,2.22C203.46,371.17,205.55,372.26,207.43,373.64z"/>
			</g>
		</g>
		<path class="st25" d="M233.94,379.65l-8.71-8.71c-2.88-2.88-7.55-2.88-10.43,0l-8.71,8.71l13.93,7.57L233.94,379.65z"/>
		<path class="st28" d="M233.8,379.65l-8.71-8.71c-2.88-2.88-7.55-2.88-10.43,0l-8.71,8.71"/>
		<g>
			<path class="st16" d="M356.28,383.3c-35.76-1.79-71.53-3.59-107.29-5.38c-5.06-0.25-10.13-0.51-15.19-0.76
				c-1.16-0.06-2.04,0.83-2.41,1.84c-1.09,2.99-7.88,4.22-11.52,4.31c-3.21,0.08-3.22,5.08,0,5c5.88-0.15,14.01-1.6,16.34-7.98
				c-0.8,0.61-1.61,1.22-2.41,1.84c35.76,1.79,71.53,3.59,107.29,5.38c5.06,0.25,10.13,0.51,15.19,0.76
				C359.5,388.46,359.49,383.46,356.28,383.3L356.28,383.3z"/>
		</g>
		<g>
			<path class="st16" d="M83.46,388.3c35.76-1.79,71.53-3.59,107.29-5.38c5.06-0.25,10.13-0.51,15.19-0.76
				c-0.8-0.61-1.61-1.22-2.41-1.84c2.33,6.38,10.47,7.83,16.34,7.98c3.22,0.08,3.22-4.92,0-5c-3.64-0.09-10.43-1.32-11.52-4.31
				c-0.37-1-1.26-1.89-2.41-1.84c-35.76,1.79-71.53,3.59-107.29,5.38c-5.06,0.25-10.13,0.51-15.19,0.76
				C80.26,383.46,80.24,388.46,83.46,388.3L83.46,388.3z"/>
		</g>
	</g>
	<g>
		<path class="st14" d="M312.43,226.34c-0.25-0.07-0.51-0.15-0.78-0.12c-0.26,0.02-0.53,0.17-0.61,0.42
			c-0.05,0.14-0.03,0.3,0.02,0.44c0.24,0.75,1.08,1.09,1.82,1.33c2.74,0.91,5.48,1.82,8.23,2.73c0.12,0.04,0.25,0.08,0.38,0.07
			c0.14-0.01,0.28-0.08,0.39-0.17c0.85-0.6,1.16-1.7,1.27-2.74c0.11-1.03,0.08-2.1,0.5-3.06c0.15-0.34,0.35-0.72,0.17-1.04
			c-0.08-0.15-0.23-0.24-0.37-0.33c-0.8-0.5-1.65-0.9-2.54-1.19c0.1,0.04-0.95,2.8-1.13,3.04
			C318.1,227.86,314.62,226.94,312.43,226.34z"/>
		<path class="st18" d="M350,148.79c0.02,0.08,0.04,0.15,0.09,0.21c0.06,0.07,0.16,0.09,0.26,0.11c2.01,0.33,4.06-0.03,6.04-0.45
			c-0.54-2.32-1.14-4.63-1.8-6.92c-0.02-0.07-0.04-0.15-0.1-0.19c-0.07-0.05-0.17-0.04-0.25-0.02c-1.02,0.18-2.05,0.38-3.06,0.59
			c-0.86,0.17-1.73,0.27-2.59,0.47c0.33,1.06,0.53,2.09,0.75,3.18C349.54,146.77,349.77,147.78,350,148.79z"/>
		<path class="st14" d="M323.43,198.81c0.89-3.01,1.93-5.97,3.26-8.87c0.25-0.55,0.53-1.11,1.01-1.47c0.39-0.29,0.87-0.41,1.34-0.53
			c3.77-0.94,7.54-1.88,11.31-2.82c3.72-0.93,7.47-1.86,11.29-2.14c2.39-0.17,9.37-0.92,10.25,1.98c0.3,0.98-0.04,2.05-0.53,2.96
			c-1.8,3.28-5.45,5.05-8.97,6.29c-5.92,2.09-12.15,3.28-18.42,3.53c-3.33,9.26-5.83,18.8-8.7,28.24l-7.41-2.01
			c0,0,2.14-11.37,2.42-12.56C321.28,207.15,322.21,202.94,323.43,198.81z"/>
		<path class="st14" d="M334.78,232.03c-0.22,0.14-0.45,0.28-0.61,0.49c-0.16,0.21-0.23,0.51-0.1,0.74c0.07,0.13,0.2,0.22,0.33,0.28
			c0.71,0.33,1.53-0.06,2.21-0.44c2.52-1.41,5.04-2.82,7.57-4.22c0.11-0.06,0.23-0.13,0.31-0.23c0.09-0.11,0.12-0.26,0.14-0.4
			c0.13-1.03-0.48-2-1.16-2.78c-0.69-0.78-1.5-1.48-1.92-2.43c-0.15-0.33-0.3-0.74-0.65-0.83c-0.16-0.04-0.33,0-0.49,0.05
			c-0.9,0.25-1.78,0.61-2.6,1.07c0.09-0.05,1.43,2.59,1.48,2.89C339.72,228.88,336.7,230.83,334.78,232.03z"/>
		<path class="st11" d="M344.84,144.62c1,0.92,2.14,1.52,3.31,1.36c1.52-0.21,2.91-0.87,4.13-1.77c2.41-1.77,4.54-4.6,4.95-7.63
			c0.61-4.46-3.24-8.1-7.4-8.76c-0.49-0.08-0.98-0.12-1.48-0.12c-2.59,0-5.2,0.73-6.75,2.9c-1.75,2.45-1.21,6.21-0.17,8.87
			C341.99,140.88,343.25,143.16,344.84,144.62z"/>
		<path class="st14" d="M336.79,199.03c0.92,2.1,1.52,4.33,2.11,6.54c1.6,5.95,4.78,17.85,4.78,17.85l-6.64,1.98
			c-1.66-4.6-3.6-9.09-5.55-13.57c-0.68-1.57-1.35-3.14-2.02-4.72c-1.2-2.81-2.42-5.62-3.78-8.36c-1.72-3.45-2.74-6.38-2.48-10.32
			c0.16-2.48,1.08-4.32,3.59-4.81c2.69-0.53,5.43-0.87,8.17-1.05c1.81-0.12,3.62-0.17,5.43-0.21c4.28-0.11,8.57-0.22,12.85-0.33
			c2.19-0.06,4.38-0.11,6.57-0.17c1.41-0.04,3.29-0.54,4.66-0.27c0.62,2.32,1.04,5.16,0.29,7.5c-2.04,6.33-7.8,9.36-14.22,9.14
			c-3.8-0.13-7.5-1.3-11-2.78c-1.33-0.56-2.68-1.18-4.12-1.28C335.15,195.75,336.17,197.63,336.79,199.03z"/>
		<path class="st29" d="M345.21,182.25c3.37-0.11,19.62,0.12,19.61,0.02c-0.55-5.13-0.15-10.46-0.23-15.64
			c-0.07-4.29-0.51-8.64-2.01-12.69c-1.32-3.56-3.54-7.38-7.85-7.31c-0.77,0.01-1.54,0.16-2.27,0.41c-3.64,1.24-5.48,4.91-6.5,8.36
			c-1.32,4.47-1.35,9.2-1.24,13.82c0.06,2.45-0.14,4.89-0.06,7.34C344.73,178.45,345.01,180.36,345.21,182.25z"/>
		<path class="st14" d="M351.9,139.63c0.03,1.39,1.52,1.82,2.31,2.85c0.93,1.23,1.45,2.79,1.34,4.34c-0.03,0.51-0.13,1.04,0.02,1.53
			c0.24,0.8,1.02,1.27,1.67,1.79c2.4,1.92,3.41,5.04,4.5,7.92c0.41,1.07,0.86,2.15,1.62,2.99c1.16,1.28,3.01,1.88,4.72,1.61
			c2.29-0.36,3.66-2.06,4.9-3.84c1.12-1.6,1.34-3.78,0.58-5.58c-1.04-2.45-3.79-4.33-3.56-6.98c0.1-1.13,0.75-2.14,0.92-3.26
			c0.34-2.21-1.25-4.24-2.92-5.73c-1.68-1.48-3.63-2.85-4.45-4.93c-0.61-1.56-0.5-3.32-1.04-4.9c-0.7-2.09-2.5-3.68-4.53-4.53
			c-2.03-0.85-4.29-1.02-6.48-0.92c-2.51,0.11-5.03,0.57-7.3,1.67c-2.26,1.09-4.25,2.85-5.33,5.12c-0.17,0.35-0.31,0.72-0.31,1.11
			c0.02,1.14,1.28,1.82,2.4,2.05c1.23,0.26,2.25,0.38,3.14,1.3c0.65,0.66,0.98,1.64,1.81,2.14c0.51,0.31,1.09,0.56,1.68,0.64
			c0.59,0.08,0.98-0.16,1.53-0.21c-0.19-0.55,0.15-1.17,0.68-1.39c0.53-0.22,1.16-0.08,1.64,0.25
			C353.27,135.93,351.87,137.9,351.9,139.63z"/>
		<path class="st11" d="M356.68,165.38c0.32,0.94,0.64,1.88,1.02,2.83c0.82,2.02,1.63,4.04,2.45,6.06c0.3,0.75,0.69,1.58,1.45,1.84
			c0.45,0.15,0.96,0.07,1.39-0.14c0.88-0.43,1.47-1.32,1.72-2.27c0.59-2.19-0.25-4.45-0.9-6.53c-1.18-3.79-2.67-7.44-4.35-11.02
			c-0.44-0.94-0.84-1.9-1.41-2.77c-0.57-0.87-1.33-1.65-2.29-2.04c-0.96-0.39-2.15-0.33-2.95,0.32c-0.94,0.76-0.79,1.94-0.43,2.96
			c0.83,2.4,1.81,4.75,2.89,7.04C355.83,162.89,356.26,164.13,356.68,165.38z"/>
		<path class="st11" d="M356.1,171.65c-4.87,0.46-9.67,1.69-14.42,2.92c-0.38,0.1-0.78,0.21-1.09,0.46
			c-0.77,0.63-0.68,2.23,0.32,2.61c0.25,0.1,0.52,0.11,0.79,0.12c2.32,0.09,4.77,0.25,7.07,0.03c2.46-0.24,4.91-0.5,7.36-0.82
			c0.99-0.13,1.97-0.27,2.96-0.42c1.25-0.19,2.61-0.19,3.73-0.85c0.11-0.07,0.23-0.14,0.3-0.25c0.07-0.1,0.1-0.22,0.12-0.33
			c0.12-0.53,0.18-1.1,0-1.62c-0.56-1.7-2.33-2.04-3.89-2.02C358.27,171.48,357.18,171.55,356.1,171.65z"/>
		
			<rect x="321.35" y="180.95" transform="matrix(-0.9954 0.096 -0.096 -0.9954 678.9862 331.6393)" class="st16" width="20.33" height="2.4"/>
		
			<rect x="308.42" y="173.27" transform="matrix(0.3865 0.9223 -0.9223 0.3865 356.3551 -186.787)" class="st16" width="20.32" height="2.4"/>
		<path class="st11" d="M333.62,175.04c0.34-0.14,0.71-0.23,1.05-0.3c0.85-0.18,1.71-0.36,2.56-0.53c0.85-0.18,1.76-0.35,2.59-0.09
			c0.41,0.13,0.78,0.37,1.14,0.6c0.61,0.39,1.22,0.78,1.83,1.17c0.09,0.6-0.22,1.2-0.66,1.61c-0.44,0.41-1,0.66-1.56,0.91
			c-0.39,0.18-0.78,0.35-1.2,0.46c-1.94,0.52-3.95-0.44-5.68-1.48c-0.14,0.67-0.28,1.34-0.41,2c-0.09,0.44-0.56,1.45-1.15,0.82
			c-0.22-0.23-0.19-0.6-0.15-0.92c0.09-0.69,0.19-1.39,0.28-2.08c0.06-0.44,0.12-0.88,0.31-1.27
			C332.78,175.5,333.17,175.23,333.62,175.04z"/>
		<path class="st29" d="M351.41,157.47c0.6,1.89,1.02,3.99,2.03,5.72c0.78-0.29,8.88-3.32,9.07-2.91c-0.83-1.75-1.66-3.51-2.49-5.26
			c-0.65-1.38-1.33-2.8-2.45-3.84c-1.12-1.04-2.79-1.64-4.21-1.07c-0.94,0.38-1.64,1.22-1.99,2.16
			C350.79,153.88,350.9,155.85,351.41,157.47z"/>
		<path class="st13" d="M346.55,141.67c-0.93,0.41-1.78,0.9-2.77,1.19c-0.13,0.04-0.27,0.05-0.4,0.09c0.44,0.61,0.93,1.18,1.46,1.67
			c0.12,0.11,0.23,0.21,0.35,0.3c0.52-0.27,0.97-0.66,1.24-1.15c0.19-0.34,0.29-0.72,0.31-1.11
			C346.74,142.58,346.65,141.62,346.55,141.67z"/>
		<path class="st14" d="M342.49,137.9c0.19,0.7,0.65,1.19,1.02,1.09c0.37-0.1,0.52-0.75,0.33-1.45c-0.19-0.7-0.65-1.19-1.02-1.09
			C342.44,136.55,342.3,137.2,342.49,137.9z"/>
		<g>
			<g>
				<path class="st14" d="M341.79,135.59c0.78-0.51,1.8-0.35,2.48,0.24c0.49,0.42,1.2-0.29,0.71-0.71c-1.01-0.87-2.52-1.17-3.69-0.4
					C340.75,135.08,341.25,135.94,341.79,135.59L341.79,135.59z"/>
			</g>
		</g>
	</g>
	<g>
		<path class="st16" d="M295.26,294.34c-13.41-15.1-36.52-16.48-51.63-3.07c-15.1,13.41-16.48,36.52-3.07,51.63
			c13.41,15.1,36.52,16.48,51.63,3.07C307.3,332.56,308.67,309.44,295.26,294.34z M288.43,341.75
			c-12.77,11.34-32.31,10.17-43.64-2.59c-11.34-12.77-10.17-32.31,2.59-43.64c12.77-11.34,32.31-10.17,43.64,2.59
			C302.36,310.87,301.2,330.41,288.43,341.75z"/>
		
			<rect x="301.73" y="337.72" transform="matrix(-0.7478 0.6639 -0.6639 -0.7478 771.46 426.9522)" class="st16" width="5.83" height="44.55"/>
		
			<ellipse transform="matrix(0.7253 -0.6885 0.6885 0.7253 -145.7659 271.9822)" class="st30" cx="267.9" cy="318.63" rx="30.91" ry="30.91"/>
		<path class="st30" d="M291.27,297.87c2.56,2.88,4.44,6.11,5.74,9.51c-1.69,3.22-3.94,6.21-6.82,8.76
			c-12.77,11.34-32.31,10.17-43.64-2.59c-2.56-2.88-4.44-6.11-5.74-9.51c1.69-3.22,3.94-6.21,6.82-8.76
			C260.4,283.94,279.94,285.1,291.27,297.87z"/>
		<path class="st14" d="M331.51,395.72l5.42-4.81c0.83-0.73,0.9-2,0.17-2.82l-26.92-30.33c-0.73-0.83-2-0.9-2.82-0.17l-5.42,4.81
			c-0.83,0.73-0.9,2-0.17,2.82l26.92,30.33C329.42,396.38,330.68,396.45,331.51,395.72z"/>
	</g>
</g>
</svg>
